<mxfile host="app.diagrams.net" agent="Mozilla/5.0 (Windows NT 10.0; Win64; x64) AppleWebKit/537.36 (KHTML, like Gecko) Chrome/135.0.0.0 Safari/537.36" version="26.2.9">
  <diagram name="PÃ¡gina-1" id="hPK-ws4id7sosNrHQ86v">
    <mxGraphModel dx="1667" dy="777" grid="1" gridSize="10" guides="1" tooltips="1" connect="1" arrows="1" fold="1" page="1" pageScale="1" pageWidth="827" pageHeight="1169" math="0" shadow="0">
      <root>
        <mxCell id="0" />
        <mxCell id="1" parent="0" />
        <mxCell id="GGjLzconWhamDGO0JO67-5" value="" style="edgeStyle=orthogonalEdgeStyle;rounded=0;orthogonalLoop=1;jettySize=auto;html=1;" edge="1" parent="1" source="GGjLzconWhamDGO0JO67-1" target="GGjLzconWhamDGO0JO67-4">
          <mxGeometry relative="1" as="geometry" />
        </mxCell>
        <mxCell id="GGjLzconWhamDGO0JO67-1" value="" style="ellipse;whiteSpace=wrap;html=1;" vertex="1" parent="1">
          <mxGeometry x="80" y="80" width="120" height="80" as="geometry" />
        </mxCell>
        <mxCell id="GGjLzconWhamDGO0JO67-7" value="" style="edgeStyle=orthogonalEdgeStyle;rounded=0;orthogonalLoop=1;jettySize=auto;html=1;" edge="1" parent="1" source="GGjLzconWhamDGO0JO67-4" target="GGjLzconWhamDGO0JO67-6">
          <mxGeometry relative="1" as="geometry" />
        </mxCell>
        <mxCell id="GGjLzconWhamDGO0JO67-4" value="Ingresa valor de A" style="whiteSpace=wrap;html=1;" vertex="1" parent="1">
          <mxGeometry x="280" y="90" width="120" height="60" as="geometry" />
        </mxCell>
        <mxCell id="GGjLzconWhamDGO0JO67-9" value="" style="edgeStyle=orthogonalEdgeStyle;rounded=0;orthogonalLoop=1;jettySize=auto;html=1;" edge="1" parent="1" source="GGjLzconWhamDGO0JO67-6" target="GGjLzconWhamDGO0JO67-8">
          <mxGeometry relative="1" as="geometry" />
        </mxCell>
        <mxCell id="GGjLzconWhamDGO0JO67-6" value="Ingresa valor de B" style="whiteSpace=wrap;html=1;" vertex="1" parent="1">
          <mxGeometry x="480" y="90" width="120" height="60" as="geometry" />
        </mxCell>
        <mxCell id="GGjLzconWhamDGO0JO67-11" value="" style="edgeStyle=orthogonalEdgeStyle;rounded=0;orthogonalLoop=1;jettySize=auto;html=1;entryX=1;entryY=0.5;entryDx=0;entryDy=0;exitX=1;exitY=0.5;exitDx=0;exitDy=0;" edge="1" parent="1" source="GGjLzconWhamDGO0JO67-8" target="GGjLzconWhamDGO0JO67-6">
          <mxGeometry relative="1" as="geometry">
            <mxPoint x="440" y="260" as="targetPoint" />
            <Array as="points">
              <mxPoint x="670" y="260" />
              <mxPoint x="670" y="120" />
            </Array>
          </mxGeometry>
        </mxCell>
        <mxCell id="GGjLzconWhamDGO0JO67-12" value="SI" style="edgeLabel;html=1;align=center;verticalAlign=middle;resizable=0;points=[];" vertex="1" connectable="0" parent="GGjLzconWhamDGO0JO67-11">
          <mxGeometry x="-0.2" y="-3" relative="1" as="geometry">
            <mxPoint as="offset" />
          </mxGeometry>
        </mxCell>
        <mxCell id="GGjLzconWhamDGO0JO67-14" value="" style="edgeStyle=orthogonalEdgeStyle;rounded=0;orthogonalLoop=1;jettySize=auto;html=1;" edge="1" parent="1" source="GGjLzconWhamDGO0JO67-8" target="GGjLzconWhamDGO0JO67-13">
          <mxGeometry relative="1" as="geometry" />
        </mxCell>
        <mxCell id="GGjLzconWhamDGO0JO67-15" value="NO" style="edgeLabel;html=1;align=center;verticalAlign=middle;resizable=0;points=[];" vertex="1" connectable="0" parent="GGjLzconWhamDGO0JO67-14">
          <mxGeometry x="-0.2" y="-1" relative="1" as="geometry">
            <mxPoint as="offset" />
          </mxGeometry>
        </mxCell>
        <mxCell id="GGjLzconWhamDGO0JO67-8" value="A==B" style="rhombus;whiteSpace=wrap;html=1;" vertex="1" parent="1">
          <mxGeometry x="500" y="220" width="80" height="80" as="geometry" />
        </mxCell>
        <mxCell id="GGjLzconWhamDGO0JO67-17" value="" style="edgeStyle=orthogonalEdgeStyle;rounded=0;orthogonalLoop=1;jettySize=auto;html=1;" edge="1" parent="1" source="GGjLzconWhamDGO0JO67-13" target="GGjLzconWhamDGO0JO67-16">
          <mxGeometry relative="1" as="geometry" />
        </mxCell>
        <mxCell id="GGjLzconWhamDGO0JO67-13" value="Ingresa valor de C" style="whiteSpace=wrap;html=1;" vertex="1" parent="1">
          <mxGeometry x="320" y="230" width="120" height="60" as="geometry" />
        </mxCell>
        <mxCell id="GGjLzconWhamDGO0JO67-19" value="" style="edgeStyle=orthogonalEdgeStyle;rounded=0;orthogonalLoop=1;jettySize=auto;html=1;entryX=0;entryY=1;entryDx=0;entryDy=0;" edge="1" parent="1" source="GGjLzconWhamDGO0JO67-16" target="GGjLzconWhamDGO0JO67-13">
          <mxGeometry relative="1" as="geometry">
            <mxPoint x="260" y="400" as="targetPoint" />
            <Array as="points">
              <mxPoint x="340" y="325" />
              <mxPoint x="320" y="325" />
            </Array>
          </mxGeometry>
        </mxCell>
        <mxCell id="GGjLzconWhamDGO0JO67-20" value="SI" style="edgeLabel;html=1;align=center;verticalAlign=middle;resizable=0;points=[];" vertex="1" connectable="0" parent="GGjLzconWhamDGO0JO67-19">
          <mxGeometry x="-0.125" y="2" relative="1" as="geometry">
            <mxPoint as="offset" />
          </mxGeometry>
        </mxCell>
        <mxCell id="GGjLzconWhamDGO0JO67-26" value="" style="edgeStyle=orthogonalEdgeStyle;rounded=0;orthogonalLoop=1;jettySize=auto;html=1;" edge="1" parent="1" source="GGjLzconWhamDGO0JO67-16" target="GGjLzconWhamDGO0JO67-25">
          <mxGeometry relative="1" as="geometry" />
        </mxCell>
        <mxCell id="GGjLzconWhamDGO0JO67-27" value="NO" style="edgeLabel;html=1;align=center;verticalAlign=middle;resizable=0;points=[];" vertex="1" connectable="0" parent="GGjLzconWhamDGO0JO67-26">
          <mxGeometry x="-0.125" y="1" relative="1" as="geometry">
            <mxPoint as="offset" />
          </mxGeometry>
        </mxCell>
        <mxCell id="GGjLzconWhamDGO0JO67-16" value="C==A o C==B" style="rhombus;whiteSpace=wrap;html=1;" vertex="1" parent="1">
          <mxGeometry x="340" y="360" width="80" height="80" as="geometry" />
        </mxCell>
        <mxCell id="GGjLzconWhamDGO0JO67-63" value="" style="edgeStyle=orthogonalEdgeStyle;rounded=0;orthogonalLoop=1;jettySize=auto;html=1;" edge="1" parent="1" source="GGjLzconWhamDGO0JO67-25" target="GGjLzconWhamDGO0JO67-62">
          <mxGeometry relative="1" as="geometry" />
        </mxCell>
        <mxCell id="GGjLzconWhamDGO0JO67-67" value="" style="edgeStyle=orthogonalEdgeStyle;rounded=0;orthogonalLoop=1;jettySize=auto;html=1;" edge="1" parent="1" source="GGjLzconWhamDGO0JO67-25" target="GGjLzconWhamDGO0JO67-66">
          <mxGeometry relative="1" as="geometry" />
        </mxCell>
        <mxCell id="GGjLzconWhamDGO0JO67-68" value="SI" style="edgeLabel;html=1;align=center;verticalAlign=middle;resizable=0;points=[];" vertex="1" connectable="0" parent="GGjLzconWhamDGO0JO67-67">
          <mxGeometry y="1" relative="1" as="geometry">
            <mxPoint as="offset" />
          </mxGeometry>
        </mxCell>
        <mxCell id="GGjLzconWhamDGO0JO67-25" value="A&amp;lt;B" style="rhombus;whiteSpace=wrap;html=1;" vertex="1" parent="1">
          <mxGeometry x="500" y="360" width="80" height="80" as="geometry" />
        </mxCell>
        <mxCell id="GGjLzconWhamDGO0JO67-64" value="" style="edgeStyle=orthogonalEdgeStyle;rounded=0;orthogonalLoop=1;jettySize=auto;html=1;" edge="1" parent="1" source="GGjLzconWhamDGO0JO67-62" target="GGjLzconWhamDGO0JO67-25">
          <mxGeometry relative="1" as="geometry" />
        </mxCell>
        <mxCell id="GGjLzconWhamDGO0JO67-65" value="NO" style="edgeLabel;html=1;align=center;verticalAlign=middle;resizable=0;points=[];" vertex="1" connectable="0" parent="GGjLzconWhamDGO0JO67-64">
          <mxGeometry x="0.125" y="2" relative="1" as="geometry">
            <mxPoint as="offset" />
          </mxGeometry>
        </mxCell>
        <mxCell id="GGjLzconWhamDGO0JO67-70" value="" style="edgeStyle=orthogonalEdgeStyle;rounded=0;orthogonalLoop=1;jettySize=auto;html=1;" edge="1" parent="1" source="GGjLzconWhamDGO0JO67-62" target="GGjLzconWhamDGO0JO67-69">
          <mxGeometry relative="1" as="geometry" />
        </mxCell>
        <mxCell id="GGjLzconWhamDGO0JO67-71" value="NO" style="edgeLabel;html=1;align=center;verticalAlign=middle;resizable=0;points=[];" vertex="1" connectable="0" parent="GGjLzconWhamDGO0JO67-70">
          <mxGeometry relative="1" as="geometry">
            <mxPoint as="offset" />
          </mxGeometry>
        </mxCell>
        <mxCell id="GGjLzconWhamDGO0JO67-79" value="" style="edgeStyle=orthogonalEdgeStyle;rounded=0;orthogonalLoop=1;jettySize=auto;html=1;" edge="1" parent="1" source="GGjLzconWhamDGO0JO67-62" target="GGjLzconWhamDGO0JO67-78">
          <mxGeometry relative="1" as="geometry" />
        </mxCell>
        <mxCell id="GGjLzconWhamDGO0JO67-80" value="SI" style="edgeLabel;html=1;align=center;verticalAlign=middle;resizable=0;points=[];" vertex="1" connectable="0" parent="GGjLzconWhamDGO0JO67-79">
          <mxGeometry y="-1" relative="1" as="geometry">
            <mxPoint as="offset" />
          </mxGeometry>
        </mxCell>
        <mxCell id="GGjLzconWhamDGO0JO67-62" value="A&amp;lt;C" style="rhombus;whiteSpace=wrap;html=1;" vertex="1" parent="1">
          <mxGeometry x="500" y="520" width="80" height="80" as="geometry" />
        </mxCell>
        <mxCell id="GGjLzconWhamDGO0JO67-88" value="" style="edgeStyle=orthogonalEdgeStyle;rounded=0;orthogonalLoop=1;jettySize=auto;html=1;" edge="1" parent="1" source="GGjLzconWhamDGO0JO67-66" target="GGjLzconWhamDGO0JO67-87">
          <mxGeometry relative="1" as="geometry" />
        </mxCell>
        <mxCell id="GGjLzconWhamDGO0JO67-89" value="Si" style="edgeLabel;html=1;align=center;verticalAlign=middle;resizable=0;points=[];" vertex="1" connectable="0" parent="GGjLzconWhamDGO0JO67-88">
          <mxGeometry x="-0.3667" y="-4" relative="1" as="geometry">
            <mxPoint as="offset" />
          </mxGeometry>
        </mxCell>
        <mxCell id="GGjLzconWhamDGO0JO67-95" value="NO" style="edgeStyle=orthogonalEdgeStyle;rounded=0;orthogonalLoop=1;jettySize=auto;html=1;" edge="1" parent="1" source="GGjLzconWhamDGO0JO67-66" target="GGjLzconWhamDGO0JO67-94">
          <mxGeometry relative="1" as="geometry" />
        </mxCell>
        <mxCell id="GGjLzconWhamDGO0JO67-66" value="B&amp;lt;C" style="rhombus;whiteSpace=wrap;html=1;" vertex="1" parent="1">
          <mxGeometry x="690" y="360" width="80" height="80" as="geometry" />
        </mxCell>
        <mxCell id="GGjLzconWhamDGO0JO67-82" value="" style="edgeStyle=orthogonalEdgeStyle;rounded=0;orthogonalLoop=1;jettySize=auto;html=1;" edge="1" parent="1" source="GGjLzconWhamDGO0JO67-69" target="GGjLzconWhamDGO0JO67-81">
          <mxGeometry relative="1" as="geometry" />
        </mxCell>
        <mxCell id="GGjLzconWhamDGO0JO67-83" value="NO" style="edgeLabel;html=1;align=center;verticalAlign=middle;resizable=0;points=[];" vertex="1" connectable="0" parent="GGjLzconWhamDGO0JO67-82">
          <mxGeometry y="-2" relative="1" as="geometry">
            <mxPoint as="offset" />
          </mxGeometry>
        </mxCell>
        <mxCell id="GGjLzconWhamDGO0JO67-85" value="" style="edgeStyle=orthogonalEdgeStyle;rounded=0;orthogonalLoop=1;jettySize=auto;html=1;" edge="1" parent="1" source="GGjLzconWhamDGO0JO67-69" target="GGjLzconWhamDGO0JO67-84">
          <mxGeometry relative="1" as="geometry" />
        </mxCell>
        <mxCell id="GGjLzconWhamDGO0JO67-86" value="SI" style="edgeLabel;html=1;align=center;verticalAlign=middle;resizable=0;points=[];" vertex="1" connectable="0" parent="GGjLzconWhamDGO0JO67-85">
          <mxGeometry x="-0.2" y="-1" relative="1" as="geometry">
            <mxPoint as="offset" />
          </mxGeometry>
        </mxCell>
        <mxCell id="GGjLzconWhamDGO0JO67-69" value="B&amp;lt;C" style="rhombus;whiteSpace=wrap;html=1;" vertex="1" parent="1">
          <mxGeometry x="500" y="680" width="80" height="80" as="geometry" />
        </mxCell>
        <mxCell id="GGjLzconWhamDGO0JO67-109" value="" style="edgeStyle=orthogonalEdgeStyle;rounded=0;orthogonalLoop=1;jettySize=auto;html=1;entryX=0.5;entryY=0;entryDx=0;entryDy=0;" edge="1" parent="1" source="GGjLzconWhamDGO0JO67-78" target="GGjLzconWhamDGO0JO67-103">
          <mxGeometry relative="1" as="geometry">
            <Array as="points">
              <mxPoint x="700" y="650" />
              <mxPoint x="980" y="650" />
            </Array>
          </mxGeometry>
        </mxCell>
        <mxCell id="GGjLzconWhamDGO0JO67-78" value="C es el numero mayor y B es el menor" style="whiteSpace=wrap;html=1;" vertex="1" parent="1">
          <mxGeometry x="640" y="530" width="120" height="60" as="geometry" />
        </mxCell>
        <mxCell id="GGjLzconWhamDGO0JO67-105" value="" style="edgeStyle=orthogonalEdgeStyle;rounded=0;orthogonalLoop=1;jettySize=auto;html=1;entryX=0.5;entryY=1;entryDx=0;entryDy=0;" edge="1" parent="1" source="GGjLzconWhamDGO0JO67-81" target="GGjLzconWhamDGO0JO67-103">
          <mxGeometry relative="1" as="geometry">
            <mxPoint x="700" y="880" as="targetPoint" />
          </mxGeometry>
        </mxCell>
        <mxCell id="GGjLzconWhamDGO0JO67-81" value="A es el numero mayor y C el menor" style="whiteSpace=wrap;html=1;" vertex="1" parent="1">
          <mxGeometry x="480" y="850" width="120" height="60" as="geometry" />
        </mxCell>
        <mxCell id="GGjLzconWhamDGO0JO67-107" value="" style="edgeStyle=orthogonalEdgeStyle;rounded=0;orthogonalLoop=1;jettySize=auto;html=1;entryX=0;entryY=0.5;entryDx=0;entryDy=0;" edge="1" parent="1" source="GGjLzconWhamDGO0JO67-84" target="GGjLzconWhamDGO0JO67-103">
          <mxGeometry relative="1" as="geometry">
            <mxPoint x="840" y="720" as="targetPoint" />
          </mxGeometry>
        </mxCell>
        <mxCell id="GGjLzconWhamDGO0JO67-84" value="A es el numero mayor y B el menor" style="whiteSpace=wrap;html=1;" vertex="1" parent="1">
          <mxGeometry x="640" y="690" width="120" height="60" as="geometry" />
        </mxCell>
        <mxCell id="GGjLzconWhamDGO0JO67-87" value="C es el numero mayor y A el menor" style="whiteSpace=wrap;html=1;" vertex="1" parent="1">
          <mxGeometry x="700" y="210" width="120" height="60" as="geometry" />
        </mxCell>
        <mxCell id="GGjLzconWhamDGO0JO67-99" value="" style="edgeStyle=orthogonalEdgeStyle;rounded=0;orthogonalLoop=1;jettySize=auto;html=1;" edge="1" parent="1" source="GGjLzconWhamDGO0JO67-94" target="GGjLzconWhamDGO0JO67-98">
          <mxGeometry relative="1" as="geometry" />
        </mxCell>
        <mxCell id="GGjLzconWhamDGO0JO67-100" value="SI" style="edgeLabel;html=1;align=center;verticalAlign=middle;resizable=0;points=[];" vertex="1" connectable="0" parent="GGjLzconWhamDGO0JO67-99">
          <mxGeometry x="-0.2333" relative="1" as="geometry">
            <mxPoint as="offset" />
          </mxGeometry>
        </mxCell>
        <mxCell id="GGjLzconWhamDGO0JO67-102" value="No" style="edgeStyle=orthogonalEdgeStyle;rounded=0;orthogonalLoop=1;jettySize=auto;html=1;" edge="1" parent="1" source="GGjLzconWhamDGO0JO67-94" target="GGjLzconWhamDGO0JO67-101">
          <mxGeometry relative="1" as="geometry" />
        </mxCell>
        <mxCell id="GGjLzconWhamDGO0JO67-94" value="A&amp;lt;C" style="rhombus;whiteSpace=wrap;html=1;" vertex="1" parent="1">
          <mxGeometry x="850" y="360" width="80" height="80" as="geometry" />
        </mxCell>
        <mxCell id="GGjLzconWhamDGO0JO67-113" value="" style="edgeStyle=orthogonalEdgeStyle;rounded=0;orthogonalLoop=1;jettySize=auto;html=1;entryX=1;entryY=0.5;entryDx=0;entryDy=0;" edge="1" parent="1" source="GGjLzconWhamDGO0JO67-98" target="GGjLzconWhamDGO0JO67-103">
          <mxGeometry relative="1" as="geometry">
            <mxPoint x="1050" y="510" as="targetPoint" />
          </mxGeometry>
        </mxCell>
        <mxCell id="GGjLzconWhamDGO0JO67-98" value="B es el numero mayor y A el menor" style="whiteSpace=wrap;html=1;" vertex="1" parent="1">
          <mxGeometry x="990" y="370" width="120" height="60" as="geometry" />
        </mxCell>
        <mxCell id="GGjLzconWhamDGO0JO67-111" value="" style="edgeStyle=orthogonalEdgeStyle;rounded=0;orthogonalLoop=1;jettySize=auto;html=1;entryX=1;entryY=0.5;entryDx=0;entryDy=0;" edge="1" parent="1" source="GGjLzconWhamDGO0JO67-101" target="GGjLzconWhamDGO0JO67-103">
          <mxGeometry relative="1" as="geometry">
            <mxPoint x="1030" y="560" as="targetPoint" />
            <Array as="points">
              <mxPoint x="890" y="600" />
              <mxPoint x="1030" y="600" />
              <mxPoint x="1030" y="660" />
              <mxPoint x="1040" y="660" />
            </Array>
          </mxGeometry>
        </mxCell>
        <mxCell id="GGjLzconWhamDGO0JO67-101" value="B es el numero mayor y C el menor" style="whiteSpace=wrap;html=1;" vertex="1" parent="1">
          <mxGeometry x="830" y="530" width="120" height="60" as="geometry" />
        </mxCell>
        <mxCell id="GGjLzconWhamDGO0JO67-103" value="FIN" style="ellipse;whiteSpace=wrap;html=1;" vertex="1" parent="1">
          <mxGeometry x="920" y="780" width="120" height="80" as="geometry" />
        </mxCell>
      </root>
    </mxGraphModel>
  </diagram>
</mxfile>
